<?xml version="1.0" encoding="utf-8"?>
<!-- Generator: Adobe Illustrator 16.0.0, SVG Export Plug-In . SVG Version: 6.00 Build 0)  -->
<!DOCTYPE svg PUBLIC "-//W3C//DTD SVG 1.1//EN" "http://www.w3.org/Graphics/SVG/1.1/DTD/svg11.dtd">
<svg version="1.1"
	 id="svg2" sodipodi:docname="Wikipedia-W-visual-balanced.svg" sodipodi:docbase="/home/neil" inkscape:version="0.44.1" sodipodi:version="0.32" xmlns:dc="http://purl.org/dc/elements/1.1/" xmlns:cc="http://web.resource.org/cc/" xmlns:rdf="http://www.w3.org/1999/02/22-rdf-syntax-ns#" xmlns:svg="http://www.w3.org/2000/svg" xmlns:sodipodi="http://sodipodi.sourceforge.net/DTD/sodipodi-0.dtd" xmlns:inkscape="http://www.inkscape.org/namespaces/inkscape"
	 xmlns="http://www.w3.org/2000/svg" xmlns:xlink="http://www.w3.org/1999/xlink" x="0px" y="0px" width="16px" height="16px"
	 viewBox="1272 982 16 16" enable-background="new 1272 982 16 16" xml:space="preserve">
<sodipodi:namedview  id="base" inkscape:current-layer="svg2" inkscape:window-y="0" inkscape:window-x="0" inkscape:window-width="1694" inkscape:pageshadow="2" inkscape:pageopacity="0.0" inkscape:window-height="1123" bordercolor="#666666" borderopacity="1.0" inkscape:cy="966.00779" objecttolerance="10.0" gridtolerance="10.0" inkscape:cx="1290.2046" guidetolerance="10.0" inkscape:zoom="0.43976328" pagecolor="#ffffff">
	</sodipodi:namedview>
<g>
	<path fill-rule="evenodd" clip-rule="evenodd" fill="#FFFFFF" d="M1277.444,984.213c0.911,0,1.824-0.005,2.735,0.001
		c2.747,0.02,5.129,1.968,5.708,4.656c0.669,3.122-1.224,6.182-4.32,6.985c-3.103,0.805-6.323-1.049-7.163-4.147
		c-0.135-0.494-0.207-1.02-0.214-1.531c-0.024-1.91-0.006-3.82-0.011-5.731c0-0.178,0.051-0.237,0.233-0.235
		C1275.421,984.218,1276.434,984.213,1277.444,984.213z M1280.139,994.158c2.27,0,4.09-1.813,4.09-4.074
		c0-2.269-1.827-4.104-4.094-4.097c-2.378,0.007-4.112,1.968-4.091,4.101C1276.067,992.351,1277.867,994.158,1280.139,994.158z"/>
	<path fill-rule="evenodd" clip-rule="evenodd" fill="#FFFFFF" d="M1280.146,987.1c1.671-0.001,3.026,1.351,3.019,3.008
		c-0.01,1.667-1.354,3.001-3.028,3c-1.669,0-3.025-1.353-3.019-3.009C1277.123,988.433,1278.47,987.1,1280.146,987.1z
		 M1280.128,991.604c0.847,0.003,1.515-0.656,1.52-1.497c0.005-0.843-0.658-1.51-1.502-1.512c-0.845-0.002-1.518,0.656-1.529,1.495
		C1278.606,990.914,1279.294,991.603,1280.128,991.604z"/>
</g>
</svg>
