<?xml version="1.0" encoding="utf-8"?>
<!-- Generator: Adobe Illustrator 16.0.0, SVG Export Plug-In . SVG Version: 6.00 Build 0)  -->
<!DOCTYPE svg PUBLIC "-//W3C//DTD SVG 1.1//EN" "http://www.w3.org/Graphics/SVG/1.1/DTD/svg11.dtd">
<svg version="1.1"
	 id="svg2" sodipodi:version="0.32" inkscape:version="0.44.1" sodipodi:docbase="/home/neil" sodipodi:docname="Wikipedia-W-visual-balanced.svg" xmlns:dc="http://purl.org/dc/elements/1.1/" xmlns:cc="http://web.resource.org/cc/" xmlns:rdf="http://www.w3.org/1999/02/22-rdf-syntax-ns#" xmlns:svg="http://www.w3.org/2000/svg" xmlns:sodipodi="http://sodipodi.sourceforge.net/DTD/sodipodi-0.dtd" xmlns:inkscape="http://www.inkscape.org/namespaces/inkscape"
	 xmlns="http://www.w3.org/2000/svg" xmlns:xlink="http://www.w3.org/1999/xlink" x="0px" y="0px" width="16px" height="16px"
	 viewBox="0 0 16 16" enable-background="new 0 0 16 16" xml:space="preserve">
<sodipodi:namedview  id="base" inkscape:window-height="1123" inkscape:pageopacity="0.0" inkscape:pageshadow="2" inkscape:window-width="1694" inkscape:window-x="0" inkscape:window-y="0" inkscape:current-layer="svg2" borderopacity="1.0" pagecolor="#ffffff" bordercolor="#666666" inkscape:zoom="0.43976328" guidetolerance="10.0" inkscape:cx="1290.2046" gridtolerance="10.0" objecttolerance="10.0" inkscape:cy="966.00779">
	</sodipodi:namedview>
<path id="path1873" sodipodi:nodetypes="cccccccccccccccccccccccccccccccccccc" fill="#FFFFFF" d="M10.423,11.792L8.367,6.943
	c-0.816,1.601-1.719,3.265-2.494,4.847c-0.005,0.007-0.375,0.002-0.375-0.003C4.318,9.028,3.092,6.289,1.905,3.533
	c-0.277-0.675-1.241-1.756-1.9-1.751c0-0.079-0.004-0.253-0.005-0.358l4.068-0.002L4.066,1.774C3.587,1.796,2.762,2.102,2.974,2.629
	C3.549,3.867,5.58,8.663,6.129,9.883c0.382-0.749,1.452-2.749,1.892-3.591C7.676,5.583,6.535,2.939,6.193,2.273
	C5.936,1.839,5.289,1.784,4.79,1.777c0-0.112,0.006-0.196,0.004-0.348l3.578,0.009v0.327C7.887,1.779,7.429,1.958,7.636,2.421
	C8.118,3.418,8.397,4.13,8.839,5.053c0.141-0.27,0.864-1.754,1.207-2.534c0.21-0.522-0.103-0.718-0.974-0.74
	C9.085,1.693,9.077,1.521,9.085,1.44c1.111-0.005,2.791-0.009,3.087-0.012l0.002,0.336c-0.567,0.021-1.152,0.324-1.463,0.792
	L9.226,5.643c0.162,0.408,1.593,3.586,1.743,3.939l3.076-7.099c-0.217-0.575-0.916-0.704-1.19-0.709
	c0.002-0.093,0.002-0.231,0.002-0.348l3.212,0.026l0.005,0.014l-0.005,0.305c-0.704,0.021-1.141,0.399-1.4,1.017
	c-0.643,1.446-2.597,6.023-3.901,9.006C10.767,11.795,10.425,11.792,10.423,11.792z"/>
</svg>
